<svg width="50" height="50" viewBox="0 0 50 50" fill="none" xmlns="http://www.w3.org/2000/svg">
<path d="M23.8479 29.4594C24.1816 29.7932 24.5661 29.9597 25.0003 29.9597C25.4344 29.9597 25.8182 29.7934 26.1518 29.4594L49.5004 6.11188C49.8342 5.77793 50 5.39363 50 4.95948C50 4.52534 49.8331 4.14086 49.5004 3.80709L46.9956 1.30155C46.6618 0.967611 46.2773 0.800903 45.8427 0.800903C45.409 0.800903 45.0247 0.967611 44.691 1.30155L25.0003 20.9915L5.31045 1.30155C4.9765 0.967611 4.5922 0.800903 4.15805 0.800903C3.72373 0.800903 3.33943 0.967611 3.00566 1.30155L0.501177 3.80709C0.166708 4.14086 0 4.52464 0 4.95948C0 5.39433 0.167235 5.77811 0.501177 6.11188L23.8479 29.4594Z" fill="#665F5F"/>
<path d="M46.9956 20.5407C46.6618 20.2068 46.2773 20.0401 45.8427 20.0401C45.409 20.0401 45.0247 20.2068 44.691 20.5407L25.0003 40.2305L5.31045 20.5402C4.9765 20.2063 4.5922 20.0396 4.15805 20.0396C3.72373 20.0396 3.33943 20.2063 3.00566 20.5402L0.501177 23.0456C0.166708 23.3795 0 23.7638 0 24.1978C0 24.6319 0.167235 25.0164 0.501177 25.3507L23.8479 48.6979C24.1816 49.0319 24.5661 49.1987 25.0003 49.1987C25.4344 49.1987 25.8182 49.0319 26.1518 48.6979L49.5004 25.3507C49.8342 25.0168 50 24.6324 50 24.1987C50 23.7645 49.8331 23.3807 49.5004 23.0463L46.9956 20.5407Z" fill="#665F5F"/>
</svg>
