<svg width="16" height="16" viewBox="0 0 16 16" fill="none" xmlns="http://www.w3.org/2000/svg">
<path d="M3.5 11.8547V10.25C3.5 9.97387 3.27613 9.75 3 9.75C2.72387 9.75 2.5 9.97387 2.5 10.25V11.8547C2.05897 12.048 1.75 12.4885 1.75 13C1.75 13.6892 2.31075 14.25 3 14.25C3.68925 14.25 4.25 13.6892 4.25 13C4.25 12.4885 3.94103 12.048 3.5 11.8547Z" fill="#665F5F"/>
<path d="M5 10.7636V2C5 0.897187 4.10281 0 3 0C1.89719 0 1 0.897187 1 2V10.7636C0.361437 11.3325 0 12.1342 0 13C0 14.6542 1.34578 16 3 16C4.65422 16 6 14.6542 6 13C6 12.1342 5.63856 11.3325 5 10.7636V10.7636ZM3 15C1.89719 15 1 14.1028 1 13C1 12.3651 1.29169 11.7818 1.80031 11.3997C1.92603 11.3053 2 11.1572 2 11V2C2 1.44859 2.44859 1 3 1C3.55141 1 4 1.44859 4 2V11C4 11.1572 4.07397 11.3053 4.19969 11.3997C4.70831 11.7818 5 12.3651 5 13C5 14.1028 4.10281 15 3 15V15Z" fill="#665F5F"/>
<path d="M15.5 4.50001H14.7071L15.1036 4.10355C15.2988 3.9083 15.2988 3.5917 15.1036 3.39645C14.9083 3.20117 14.5917 3.20117 14.3965 3.39645L13.2929 4.50001H12.6768C12.5975 4.23436 12.4566 3.99517 12.2708 3.7987L12.5793 3.2643L14.0869 2.86036C14.3537 2.78889 14.512 2.5147 14.4405 2.24798C14.369 1.9813 14.0949 1.82295 13.8281 1.89442L13.2865 2.03955L13.683 1.3528C13.8211 1.11364 13.7391 0.807859 13.5 0.669796C13.2609 0.531765 12.955 0.613671 12.817 0.852859L12.4205 1.53945L12.2754 0.997952C12.204 0.731234 11.9299 0.57289 11.6631 0.64439C11.3963 0.715859 11.238 0.990046 11.3095 1.25676L11.7134 2.76414L11.4052 3.29786C11.1373 3.23405 10.8631 3.23398 10.5948 3.29786L10.2866 2.76414L10.6905 1.25676C10.762 0.990046 10.6037 0.715859 10.337 0.64439C10.0702 0.57289 9.79609 0.731202 9.72459 0.997921L9.5795 1.53939L9.18306 0.852765C9.04497 0.613609 8.73919 0.53164 8.50006 0.669702C8.26091 0.807734 8.17897 1.11355 8.317 1.3527L8.71356 2.03948L8.17197 1.89436C7.90516 1.82286 7.63103 1.9812 7.55959 2.24789C7.48812 2.51464 7.64641 2.7888 7.91313 2.86026L9.42075 3.26423L9.72931 3.79861C9.5435 3.99508 9.40259 4.23423 9.32325 4.49992H8.70719L7.60366 3.39639C7.40841 3.20111 7.09181 3.20111 6.89656 3.39639C6.70128 3.59164 6.70128 3.90823 6.89656 4.10348L7.29291 4.50001H6.5C6.22387 4.50001 6 4.72389 6 5.00001C6 5.27614 6.22387 5.50001 6.5 5.50001H7.29291L6.89647 5.89648C6.58053 6.21236 6.80859 6.75001 7.25 6.75001C7.37797 6.75001 7.50591 6.7012 7.60353 6.60355L8.70709 5.50001H9.32316C9.40253 5.76567 9.54341 6.00486 9.72922 6.20133L9.42069 6.7357L7.91306 7.13967C7.64631 7.21114 7.48803 7.4853 7.55953 7.75205C7.63097 8.01876 7.90488 8.17708 8.17191 8.10558L8.71353 7.96045L8.31697 8.64727C8.12369 8.98217 8.36869 9.39733 8.74956 9.39733C8.92234 9.39733 9.09044 9.30761 9.18306 9.1472L9.5795 8.46058L9.72459 9.00205C9.78447 9.22545 9.98647 9.37277 10.2072 9.37277C10.536 9.37277 10.7756 9.06064 10.6905 8.74323L10.2866 7.23589L10.5948 6.70217C10.8627 6.76598 11.137 6.76605 11.4052 6.70217L11.7134 7.23589L11.3095 8.74327C11.2244 9.0608 11.4642 9.3728 11.7928 9.3728C12.0136 9.3728 12.2156 9.22545 12.2755 9.00208L12.4205 8.46061L12.817 9.1472C12.9096 9.30764 13.0777 9.39733 13.2505 9.39733C13.6309 9.39733 13.8766 8.98255 13.6831 8.64727L13.2865 7.96051L13.8282 8.10564C14.0948 8.17717 14.3691 8.01883 14.4406 7.75211C14.512 7.48536 14.3537 7.2112 14.087 7.13973L12.5794 6.73576L12.2708 6.20136C12.4566 6.00489 12.5975 5.76573 12.6769 5.50005H13.293L14.3965 6.60358C14.4942 6.70123 14.6221 6.75005 14.7501 6.75005C15.1915 6.75005 15.4196 6.21239 15.1036 5.89651L14.7071 5.50001H15.5C15.7762 5.50001 16 5.27614 16 5.00001C16 4.72389 15.7762 4.50001 15.5 4.50001V4.50001ZM10.25 5.00001C10.25 4.58645 10.5865 4.25001 11 4.25001C11.4135 4.25001 11.75 4.58645 11.75 5.00001C11.75 5.41358 11.4135 5.75001 11 5.75001C10.5865 5.75001 10.25 5.41358 10.25 5.00001Z" fill="#665F5F"/>
</svg>
