<svg width="50" height="50" viewBox="0 0 50 50" fill="none" xmlns="http://www.w3.org/2000/svg">
<path d="M3.00566 29.4586C3.3396 29.7923 3.72391 29.9594 4.15805 29.9594C4.5922 29.9594 4.9765 29.7923 5.31045 29.4586L25.0003 9.7684L44.6908 29.4586C45.0246 29.7923 45.409 29.9594 45.8425 29.9594C46.2773 29.9594 46.6616 29.7923 46.9954 29.4586L49.5002 26.9532C49.834 26.6195 49.9998 26.235 49.9998 25.8015C49.9998 25.3672 49.8329 24.9829 49.5002 24.6491L26.1518 1.30191C25.8182 0.967436 25.4344 0.801254 25.0003 0.801254C24.5661 0.801254 24.1816 0.967963 23.8479 1.30191L0.501177 24.649C0.166708 24.9829 0 25.3667 0 25.8019C0 26.235 0.167235 26.6193 0.501177 26.9532L3.00566 29.4586Z" fill="#665F5F"/>
<path d="M26.1518 20.5411C25.8182 20.2066 25.4344 20.0399 25.0003 20.0399C24.5661 20.0399 24.1816 20.2071 23.8479 20.5411L0.501177 43.8881C0.166708 44.2221 0 44.6062 0 45.041C0 45.4748 0.167235 45.859 0.501177 46.1929L3.00566 48.6981C3.3396 49.032 3.72391 49.1979 4.15805 49.1979C4.5922 49.1979 4.9765 49.031 5.31045 48.6981L25.0003 29.0074L44.6908 48.6981C45.0246 49.032 45.409 49.1986 45.8425 49.1986C46.2773 49.1986 46.6616 49.0322 46.9954 48.6981L49.5002 46.1929C49.834 45.859 49.9998 45.4747 49.9998 45.041C49.9998 44.6062 49.8329 44.2221 49.5002 43.8881L26.1518 20.5411Z" fill="#665F5F"/>
</svg>
