<svg width="16" height="16" viewBox="0 0 16 16" fill="none" xmlns="http://www.w3.org/2000/svg">
<path d="M3.5 11.8547V5.5C3.5 5.22387 3.27613 5 3 5C2.72387 5 2.5 5.22387 2.5 5.5V11.8547C2.05897 12.048 1.75 12.4885 1.75 13C1.75 13.6892 2.31075 14.25 3 14.25C3.68925 14.25 4.25 13.6892 4.25 13C4.25 12.4885 3.94103 12.048 3.5 11.8547Z" fill="#665F5F"/>
<path d="M5 10.7636V2C5 0.897187 4.10281 0 3 0C1.89719 0 1 0.897187 1 2V10.7636C0.361437 11.3325 0 12.1342 0 13C0 14.6542 1.34578 16 3 16C4.65422 16 6 14.6542 6 13C6 12.1342 5.63856 11.3325 5 10.7636V10.7636ZM3 15C1.89719 15 1 14.1028 1 13C1 12.3651 1.29169 11.7818 1.80031 11.3997C1.92603 11.3053 2 11.1572 2 11V2C2 1.44859 2.44859 1 3 1C3.55141 1 4 1.44859 4 2V11C4 11.1572 4.07397 11.3053 4.19969 11.3997C4.70831 11.7818 5 12.3651 5 13C5 14.1028 4.10281 15 3 15V15Z" fill="#665F5F"/>
<path d="M11 2.5C9.6215 2.5 8.5 3.6215 8.5 5C8.5 6.3785 9.6215 7.5 11 7.5C12.3785 7.5 13.5 6.3785 13.5 5C13.5 3.6215 12.3785 2.5 11 2.5ZM11 6.5C10.1729 6.5 9.5 5.82709 9.5 5C9.5 4.17291 10.1729 3.5 11 3.5C11.8271 3.5 12.5 4.17291 12.5 5C12.5 5.82709 11.8271 6.5 11 6.5Z" fill="#665F5F"/>
<path d="M11 1.65625C11.2761 1.65625 11.5 1.43238 11.5 1.15625V0.5C11.5 0.223875 11.2761 0 11 0C10.7239 0 10.5 0.223875 10.5 0.5V1.15625C10.5 1.43238 10.7239 1.65625 11 1.65625Z" fill="#665F5F"/>
<path d="M11 8.34375C10.7239 8.34375 10.5 8.56762 10.5 8.84375V9.5C10.5 9.77613 10.7239 10 11 10C11.2761 10 11.5 9.77613 11.5 9.5V8.84375C11.5 8.56762 11.2761 8.34375 11 8.34375Z" fill="#665F5F"/>
<path d="M7.65625 5C7.65625 4.72387 7.43238 4.5 7.15625 4.5H6.5C6.22387 4.5 6 4.72387 6 5C6 5.27613 6.22387 5.5 6.5 5.5H7.15625C7.43238 5.5 7.65625 5.27613 7.65625 5Z" fill="#665F5F"/>
<path d="M15.5 4.5H14.8438C14.5676 4.5 14.3438 4.72387 14.3438 5C14.3438 5.27613 14.5676 5.5 14.8438 5.5H15.5C15.7761 5.5 16 5.27613 16 5C16 4.72387 15.7761 4.5 15.5 4.5Z" fill="#665F5F"/>
<path d="M7.91889 2.62614C8.11411 2.82139 8.43074 2.82142 8.62599 2.62614C8.82127 2.43089 8.82127 2.1143 8.62599 1.91904L8.17142 1.46448C7.97617 1.2692 7.65958 1.2692 7.46433 1.46448C7.26905 1.65973 7.26905 1.97633 7.46433 2.17158L7.91889 2.62614Z" fill="#665F5F"/>
<path d="M14.0808 7.37387C13.8856 7.17859 13.569 7.17859 13.3738 7.37387C13.1785 7.56912 13.1785 7.88572 13.3738 8.08097L13.8283 8.53553C13.9259 8.63318 14.0539 8.682 14.1818 8.682C14.6233 8.682 14.8513 8.14431 14.5354 7.82847L14.0808 7.37387Z" fill="#665F5F"/>
<path d="M7.91889 7.37387L7.46433 7.82844C7.26905 8.02369 7.26905 8.34028 7.46433 8.53553C7.65955 8.73078 7.97617 8.73081 8.17142 8.53553L8.62599 8.08097C8.82127 7.88572 8.82127 7.56912 8.62599 7.37387C8.43074 7.17859 8.11414 7.17859 7.91889 7.37387Z" fill="#665F5F"/>
<path d="M13.7274 2.7726C13.8553 2.7726 13.9833 2.72379 14.0809 2.62613L14.5355 2.17157C14.7308 1.97632 14.7308 1.65973 14.5355 1.46448C14.3402 1.2692 14.0236 1.2692 13.8284 1.46448L13.3738 1.91904C13.0579 2.23495 13.286 2.7726 13.7274 2.7726V2.7726Z" fill="#665F5F"/>
</svg>
